<svg xmlns="http://www.w3.org/2000/svg" xmlns:xlink="http://www.w3.org/1999/xlink" width="512" zoomAndPan="magnify" viewBox="0 0 384 383.999986" height="512" preserveAspectRatio="xMidYMid meet" version="1.0"><defs><g/><clipPath id="1acfc35a5a"><rect x="0" width="379" y="0" height="384"/></clipPath></defs><g transform="matrix(1, 0, 0, 1, 4, 0)"><g clip-path="url(#1acfc35a5a)"><g fill="#004aad" fill-opacity="1"><g transform="translate(8.013742, 150.025052)"><g><path d="M 101.28125 -82.703125 L 21.40625 -89.390625 L 24.09375 -110.8125 L 103.953125 -104.265625 Z M 107.671875 -35.703125 C 100.335938 -26.578125 92.007812 -18.394531 82.6875 -11.15625 C 73.363281 -3.914062 63.300781 2.628906 52.5 8.484375 L 34.640625 -9.375 C 40.203125 -12.050781 45.554688 -14.898438 50.703125 -17.921875 C 55.859375 -20.941406 60.59375 -24.015625 64.90625 -27.140625 C 69.226562 -30.265625 73.046875 -33.363281 76.359375 -36.4375 C 79.679688 -39.507812 82.335938 -42.382812 84.328125 -45.0625 C 86.609375 -48.238281 87.398438 -50.394531 86.703125 -51.53125 C 86.003906 -52.675781 83.425781 -53.25 78.96875 -53.25 C 68.457031 -53.25 57.75 -52.601562 46.84375 -51.3125 C 35.9375 -50.019531 24.78125 -48.382812 13.375 -46.40625 L 9.359375 -68.125 C 21.753906 -70.101562 33.953125 -71.632812 45.953125 -72.71875 C 57.953125 -73.8125 70.394531 -74.359375 83.28125 -74.359375 C 91.21875 -74.359375 97.785156 -73.390625 102.984375 -71.453125 C 108.191406 -69.523438 111.882812 -66.828125 114.0625 -63.359375 C 116.25 -59.890625 116.847656 -55.800781 115.859375 -51.09375 C 114.867188 -46.382812 112.140625 -41.253906 107.671875 -35.703125 Z M 107.671875 -35.703125 "/></g></g></g><g fill="#004aad" fill-opacity="1"><g transform="translate(134.442273, 150.025052)"><g><path d="M 113.640625 -95.046875 C 107.691406 -90.972656 101.195312 -86.726562 94.15625 -82.3125 C 87.113281 -77.90625 79.179688 -73.273438 70.359375 -68.421875 L 81.953125 -68.859375 L 84.640625 3.71875 L 59.203125 4.609375 L 56.671875 -60.234375 C 49.929688 -55.972656 43.285156 -51.929688 36.734375 -48.109375 C 30.191406 -44.296875 23.898438 -40.800781 17.859375 -37.625 L 5.203125 -57.109375 C 13.035156 -61.179688 21.140625 -65.617188 29.515625 -70.421875 C 37.898438 -75.234375 46.15625 -80.164062 54.28125 -85.21875 C 62.414062 -90.28125 70.203125 -95.3125 77.640625 -100.3125 C 85.078125 -105.320312 91.769531 -110.0625 97.71875 -114.53125 Z M 113.640625 -95.046875 "/></g></g></g><g fill="#004aad" fill-opacity="1"><g transform="translate(257.896017, 150.025052)"><g><path d="M 96.078125 -34.5 C 91.222656 -36.582031 86.660156 -38.488281 82.390625 -40.21875 C 78.128906 -41.957031 73.960938 -43.519531 69.890625 -44.90625 C 65.828125 -46.300781 61.8125 -47.617188 57.84375 -48.859375 C 53.882812 -50.097656 49.773438 -51.3125 45.515625 -52.5 L 46.25 4.765625 L 20.671875 5.0625 L 19.03125 -111.703125 L 44.625 -112.140625 L 45.515625 -57.109375 L 51.609375 -75.109375 C 60.628906 -72.535156 69.75 -69.734375 78.96875 -66.703125 C 88.195312 -63.679688 96.925781 -60.582031 105.15625 -57.40625 Z M 96.078125 -34.5 "/></g></g></g><g fill="#004aad" fill-opacity="1"><g transform="translate(0.565066, 356.901488)"><g><path d="M 107.984375 -60.6875 C 107.785156 -57.019531 107.515625 -53.445312 107.171875 -49.96875 C 106.828125 -46.5 106.40625 -43.226562 105.90625 -40.15625 C 105.007812 -34.101562 103.347656 -28.769531 100.921875 -24.15625 C 98.492188 -19.550781 95.269531 -15.4375 91.25 -11.8125 C 87.238281 -8.195312 82.359375 -5 76.609375 -2.21875 C 70.859375 0.550781 64.113281 3.125 56.375 5.5 L 44.921875 -13.390625 C 51.566406 -15.171875 57.171875 -17.003906 61.734375 -18.890625 C 66.296875 -20.773438 70.085938 -22.878906 73.109375 -25.203125 C 76.128906 -27.535156 78.429688 -30.210938 80.015625 -33.234375 C 81.609375 -36.265625 82.753906 -39.863281 83.453125 -44.03125 C 84.242188 -48.988281 84.835938 -54.34375 85.234375 -60.09375 L 57.859375 -59.34375 L 59.046875 -36.4375 L 35.703125 -34.796875 L 34.359375 -58.75 L 10.859375 -58.15625 L 9.96875 -79.421875 L 33.328125 -80.015625 L 31.53125 -108.578125 L 55.1875 -109.625 L 56.671875 -80.609375 L 85.828125 -81.359375 C 85.921875 -85.921875 85.894531 -90.457031 85.75 -94.96875 C 85.601562 -99.476562 85.429688 -103.914062 85.234375 -108.28125 L 108.4375 -107.984375 C 108.632812 -103.816406 108.753906 -99.550781 108.796875 -95.1875 C 108.847656 -90.820312 108.875 -86.410156 108.875 -81.953125 L 131.1875 -82.546875 L 132.078125 -61.28125 Z M 107.984375 -60.6875 "/></g></g></g><g fill="#004aad" fill-opacity="1"><g transform="translate(141.867524, 356.901488)"><g><path d="M 113.640625 -95.046875 C 107.691406 -90.972656 101.195312 -86.726562 94.15625 -82.3125 C 87.113281 -77.90625 79.179688 -73.273438 70.359375 -68.421875 L 81.953125 -68.859375 L 84.640625 3.71875 L 59.203125 4.609375 L 56.671875 -60.234375 C 49.929688 -55.972656 43.285156 -51.929688 36.734375 -48.109375 C 30.191406 -44.296875 23.898438 -40.800781 17.859375 -37.625 L 5.203125 -57.109375 C 13.035156 -61.179688 21.140625 -65.617188 29.515625 -70.421875 C 37.898438 -75.234375 46.15625 -80.164062 54.28125 -85.21875 C 62.414062 -90.28125 70.203125 -95.3125 77.640625 -100.3125 C 85.078125 -105.320312 91.769531 -110.0625 97.71875 -114.53125 Z M 113.640625 -95.046875 "/></g></g></g><g fill="#004aad" fill-opacity="1"><g transform="translate(265.321268, 356.901488)"><g><path d="M 96.078125 -34.5 C 91.222656 -36.582031 86.660156 -38.488281 82.390625 -40.21875 C 78.128906 -41.957031 73.960938 -43.519531 69.890625 -44.90625 C 65.828125 -46.300781 61.8125 -47.617188 57.84375 -48.859375 C 53.882812 -50.097656 49.773438 -51.3125 45.515625 -52.5 L 46.25 4.765625 L 20.671875 5.0625 L 19.03125 -111.703125 L 44.625 -112.140625 L 45.515625 -57.109375 L 51.609375 -75.109375 C 60.628906 -72.535156 69.75 -69.734375 78.96875 -66.703125 C 88.195312 -63.679688 96.925781 -60.582031 105.15625 -57.40625 Z M 96.078125 -34.5 "/></g></g></g></g></g></svg>